#define btc_width 8
#define btc_height 8
static unsigned char btc_bits[] = {
   0x28, 0x62, 0xdb, 0xe3, 0xdb, 0xe3, 0x6a, 0x3c };
