#define cloud_width 8
#define cloud_height 8
static unsigned char cloud_bits[] = {
   0x38, 0x44, 0x8e, 0x91, 0x81, 0x81, 0x7e, 0x00 };
