#define glider_width 8
#define glider_height 8
static unsigned char glider_bits[] = {
   0xdb, 0xdb, 0x00, 0x03, 0x03, 0x00, 0x18, 0x18 };
