#define hdd_width 8
#define hdd_height 8
static unsigned char hdd_bits[] = {
   0x3c, 0x7e, 0x3c, 0x42, 0x7e, 0x7e, 0x7e, 0x3c };
