#define moon_width 8
#define moon_height 8
static unsigned char moon_bits[] = {
   0x20, 0x40, 0xc0, 0xc0, 0xc0, 0xe1, 0x7e, 0x3c };
