#define pacman_width 8
#define pacman_height 8
static unsigned char pacman_bits[] = {
   0x3c, 0x7e, 0x1f, 0x07, 0x07, 0x1f, 0x7e, 0x3c };
