#define rain_width 8
#define rain_height 8
static unsigned char rain_bits[] = {
   0x78, 0x86, 0x89, 0x7e, 0x00, 0x42, 0x29, 0x04 };
