#define rss_width 8
#define rss_height 8
static unsigned char rss_bits[] = {
   0x1e, 0x20, 0x4e, 0x90, 0xa6, 0xa8, 0xab, 0x03 };
