#define sun_width 8
#define sun_height 8
static unsigned char sun_bits[] = {
   0x54, 0x3d, 0xfe, 0x7f, 0xfe, 0x7f, 0xbc, 0x2a };
