#define square_workspace_width 13
#define square_workspace_height 14
static unsigned char square_workspace_bits[] = {
   0x00, 0x00, 0xfe, 0x1f, 0xfe, 0x1f, 0xfe, 0x1f, 0xfe, 0x1f, 0xfe, 0x1f,
   0xfe, 0x1f, 0xfe, 0x1f, 0xfe, 0x1f, 0xfe, 0x1f, 0xfe, 0x1f, 0xfe, 0x1f,
   0xfe, 0x1f, 0x00, 0x00 };
