#define square_monocle_width 13
#define square_monocle_height 14
static unsigned char square_monocle_bits[] = {
   0x00, 0x00, 0xfe, 0x1f, 0x02, 0x10, 0x02, 0x10, 0x02, 0x10, 0x02, 0x10,
   0x02, 0x10, 0x02, 0x10, 0x02, 0x10, 0x02, 0x10, 0x02, 0x10, 0x02, 0x10,
   0xfe, 0x1f, 0x00, 0x00 };
