#define square_tiled_width 13
#define square_tiled_height 14
static unsigned char square_tiled_bits[] = {
   0x00, 0x00, 0xfe, 0x1f, 0x82, 0x10, 0x82, 0x10, 0x82, 0x10, 0x82, 0x1f,
   0x82, 0x10, 0x82, 0x10, 0x82, 0x10, 0x82, 0x10, 0x82, 0x10, 0x82, 0x10,
   0xfe, 0x1f, 0x00, 0x00 };
