#define square_floating_width 13
#define square_floating_height 14
static unsigned char square_floating_bits[] = {
   0x00, 0x00, 0xaa, 0x0a, 0x00, 0x10, 0x02, 0x00, 0x00, 0x10, 0x02, 0x00,
   0x00, 0x10, 0x02, 0x00, 0x00, 0x10, 0x02, 0x00, 0x00, 0x10, 0x02, 0x00,
   0x54, 0x15, 0x00, 0x00 };
