#define tiled_width 14
#define tiled_height 14
static unsigned char tiled_bits[] = {
   0x00, 0x00, 0x3e, 0x1f, 0x3e, 0x1f, 0x3e, 0x1f, 0x3e, 0x1f, 0x3e, 0x1f,
   0x3e, 0x00, 0x3e, 0x00, 0x3e, 0x1f, 0x3e, 0x1f, 0x3e, 0x1f, 0x3e, 0x1f,
   0x3e, 0x1f, 0x00, 0x00 };
