/* XPM */
static char * vreon_xpm[] = {
"14 14 4 1",
" 	c #FFFFFF",
".	c #101010",
"+	c #7340A5",
"@	c #3DA2D1",
".....++++.....",
"...++    ++...",
"..+  ++++  +..",
".+ ++++++++ +.",
".+ +++ +  + +.",
"+ ++++ +   + +",
"+ +++  + +   +",
"+   + +  +++ +",
"+ +   + ++++ +",
".+ +  + +++ +.",
".+ ++++++++ +.",
"..+  ++++  +..",
"...++    ++...",
".....++++....."};
