#define vreon_width 14
#define vreon_height 14
static unsigned char vreon_bits[] = {
   0x00, 0x00, 0xe0, 0x01, 0x18, 0x06, 0x04, 0x08, 0x44, 0x0b, 0x42, 0x17,
   0x62, 0x1d, 0xae, 0x11, 0xba, 0x10, 0xb4, 0x08, 0x04, 0x08, 0x18, 0x06,
   0xe0, 0x01, 0x00, 0x00 };
